<svg width="109" height="140" viewBox="0 0 109 140" xmlns="http://www.w3.org/2000/svg" xmlns:xlink="http://www.w3.org/1999/xlink">
  <defs>
    <path d="M1.61161166,128 C0.723031704,128 0,127.285354 0,126.407081 L0,1.59291919 C0,0.714645537 0.723031704,0 1.61161166,0 L95.3885,0 C96.2770799,0 97,0.714645537 97,1.59291919 L97,126.407081 C97,127.285354 96.2770799,128 95.3885,128 L1.61161166,128 Z" id="b"/>
    <path d="M10.4641541,1.75733976 C12.8579429,4.10045945 12.8579429,7.89954055 10.4641541,10.2426602 C8.07036526,12.5857799 4.1891304,12.5857799 1.7953416,10.2426602 C-0.5984472,7.89954055 -0.5984472,4.10045945 1.7953416,1.75733976 C4.1891304,-0.585779921 8.07036526,-0.585779921 10.4641541,1.75733976 Z M8.84750627,3.33976811 C7.34655334,1.87058572 4.91294231,1.87058572 3.41198938,3.33976811 C1.91103646,4.8089505 1.91103646,7.1910495 3.41198938,8.66023189 C4.91294231,10.1294143 7.34655334,10.1294143 8.84750627,8.66023189 C10.3484592,7.1910495 10.3484592,4.8089505 8.84750627,3.33976811 Z" id="d"/>
    <filter x="-8.2%" y="-6.2%" width="116.5%" height="112.5%" filterUnits="objectBoundingBox" id="a">
      <feOffset in="SourceAlpha" result="shadowOffsetOuter1"/>
      <feGaussianBlur stdDeviation="2" in="shadowOffsetOuter1" result="shadowBlurOuter1"/>
      <feColorMatrix values="0 0 0 0 0 0 0 0 0 0 0 0 0 0 0 0 0 0 0.264177229 0" in="shadowBlurOuter1" result="shadowMatrixOuter1"/>
      <feMerge>
        <feMergeNode in="shadowMatrixOuter1"/>
        <feMergeNode in="SourceGraphic"/>
      </feMerge>
    </filter>
  </defs>
  <g transform="translate(-141.000000, -498.000000) translate(147.000000, 504.000000)" filter="url(#a)" fill="none" fill-rule="evenodd">
    <mask id="c" fill="#fff">
      <use xlink:href="#b"/>
    </mask>
    <use fill="#FFF" xlink:href="#b"/>
    <path d="M1.61161166,128 C0.723031704,128 0,127.285354 0,126.407081 L0,1.59291919 C0,0.714645537 0.723031704,0 1.61161166,0 L95.3885,0 C96.2770799,0 97,0.714645537 97,1.59291919 L97,126.407081 C97,127.285354 96.2770799,128 95.3885,128 L1.61161166,128 Z" fill="#FFF" mask="url(#c)"/>
    <g mask="url(#c)" fill="#2E2F32">
      <path d="M22.8175093,0 L35,12.1742714 L35,47 L0,47 L0,0 L22.8175093,0 Z M22.21625,1.46875 L1.45833333,1.46875 L1.45833333,45.53125 L33.5416667,45.53125 L33.5416667,12.7854688 L22.21625,1.46875 Z" fill-rule="nonzero" transform="translate(36.000000, 56.000000)"/>
      <path d="M18.6,24 L18.6,30 L20.6,30 L17.8,33 L15,30 L16.999,29.999 L17,24 L18.6,24 Z" transform="translate(36.000000, 56.000000)"/>
      <path fill-rule="nonzero" d="M22.498 1 22.497 11.588 34 11.588 34 13 21 13 21 1z" transform="translate(36.000000, 56.000000)"/>
    </g>
    <path fill="#0A6FBE" mask="url(#c)" d="M-3-1H13V130H-3z"/>
    <g mask="url(#c)">
      <g fill="#111214" fill-rule="nonzero">
        <path d="M2.40286115,0.304 L0,0.304 L0,5.904 L1.4057555,5.904 L1.4057555,4.376 L2.39468815,4.376 C3.9639036,4.376 4.94466325,3.6 4.94466325,2.328 C4.94466325,1.072 3.97207659,0.304 2.40286115,0.304 Z M1.4057555,3.232 L1.4057555,1.448 L2.36199616,1.448 C3.0975659,1.448 3.53890775,1.736 3.53890775,2.328 C3.53890775,2.936 3.0975659,3.232 2.36199616,3.232 L1.4057555,3.232 Z" transform="translate(26.000000, 15.000000) translate(15.181717, 2.762653)"/>
        <path d="M7.70947141,6 C9.18061089,6 10.2431005,5.016 10.2431005,3.68 C10.2431005,2.352 9.18061089,1.384 7.71764441,1.384 C6.25467793,1.384 5.18401531,2.352 5.18401531,3.688 C5.18401531,5.024 6.24650493,6 7.70947141,6 Z M7.71764441,4.864 C7.03928565,4.864 6.54890582,4.392 6.54890582,3.672 C6.54890582,2.976 7.03928565,2.512 7.70947141,2.512 C8.38783017,2.512 8.87821,2.976 8.87821,3.688 C8.87821,4.392 8.38783017,4.864 7.71764441,4.864 Z" transform="translate(26.000000, 15.000000) translate(15.181717, 2.762653)"/>
        <path d="M12.166 5.904 12.166 0 10.818 0 10.818 5.904z" transform="translate(26.000000, 15.000000) translate(15.181717, 2.762653)"/>
        <path d="M15.184261,4.448 L14.0645604,1.48 L12.61794,1.48 L14.4813833,5.84 L14.4568643,5.896 C14.3260964,6.208 14.1708094,6.336 13.8193705,6.336 C13.6150456,6.336 13.3616827,6.288 13.1164928,6.192 L12.8059189,7.088 C13.0511088,7.224 13.5496616,7.368 13.9828305,7.368 C14.9472441,7.368 15.388586,7.024 15.7727168,6.168 L15.8871388,5.904 L17.7587551,1.48 L16.3039617,1.48 L15.184261,4.448 Z" transform="translate(26.000000, 15.000000) translate(15.181717, 2.762653)"/>
        <path d="M19.3057867,4.712 C19.1014618,4.712 18.9461749,4.688 18.9461749,4.528 C18.9461749,4.448 18.9788668,4.376 19.0360778,4.32 C19.2649217,4.368 19.5264577,4.392 19.8043396,4.392 C21.1120191,4.392 21.8966268,3.808 21.8966268,2.872 C21.8966268,2.584 21.7740319,2.328 21.5860529,2.152 L22.1990277,2.064 L21.9456648,1.176 L20.7360612,1.536 C20.4826983,1.424 20.1639514,1.376 19.7879936,1.376 C18.488487,1.376 17.7038793,1.952 17.7038793,2.872 C17.7038793,3.336 17.8836852,3.712 18.2351241,3.968 C17.9408962,4.128 17.7038793,4.4 17.7038793,4.776 C17.7038793,5.048 17.8346473,5.304 18.1043562,5.464 C17.8101283,5.624 17.5567653,5.888 17.5567653,6.232 C17.5567653,6.968 18.3005081,7.368 19.6817446,7.368 C21.389901,7.368 22.2644117,6.808 22.2644117,5.928 C22.2644117,5.184 21.6923019,4.696 20.2702004,4.712 L19.3057867,4.712 Z M19.7961666,2.336 C20.3028924,2.336 20.5726013,2.52 20.5726013,2.872 C20.5726013,3.24 20.3028924,3.44 19.7961666,3.44 C19.2894407,3.44 19.0197318,3.24 19.0197318,2.864 C19.0197318,2.52 19.2894407,2.336 19.7961666,2.336 Z M19.7798206,6.368 C19.2158838,6.368 18.8399259,6.312 18.8399259,6 C18.8399259,5.872 18.9053099,5.768 19.0360778,5.648 L20.0331835,5.648 C20.6379853,5.648 20.9485591,5.696 20.9485591,5.952 C20.9485591,6.272 20.5644283,6.368 19.7798206,6.368 Z" transform="translate(26.000000, 15.000000) translate(15.181717, 2.762653)"/>
        <path d="M25.9119035,3.672 C25.9119035,4.352 25.4623887,4.84 24.8494139,4.84 C24.2773041,4.84 23.9912492,4.52 23.9912492,3.936 L23.9912492,1.48 L22.6427047,1.48 L22.6427047,4.16 C22.6427047,5.32 23.3374094,6 24.4244181,6 C25.0782578,6 25.5768106,5.736 25.9119035,5.36 L25.9119035,5.904 L27.2604481,5.904 L27.2604481,1.48 L25.9119035,1.48 L25.9119035,3.672 Z" transform="translate(26.000000, 15.000000) translate(15.181717, 2.762653)"/>
        <path d="M29.8617963,1.384 C29.2079565,1.384 28.4887328,1.568 27.941142,1.96 L28.4805598,2.872 C28.8074796,2.624 29.3142055,2.472 29.7146823,2.472 C30.3930411,2.472 30.736307,2.744 30.760826,3.216 C30.4093871,3.184 29.9271803,3.16 29.5512224,3.16 C28.2517158,3.16 27.704125,3.784 27.704125,4.592 C27.704125,5.424 28.3334458,6 29.2815135,6 C30.0089102,6 30.507463,5.704 30.768999,5.392 L30.768999,5.904 L32.1175435,5.904 L32.1175435,3.32 C32.1175435,2.128 31.4310117,1.384 29.8617963,1.384 Z M29.7392013,4.96 C29.2733405,4.96 28.9954586,4.792 28.9954586,4.472 C28.9954586,4.152 29.2243025,3.936 29.8863153,3.936 C30.2295811,3.936 30.49929,3.952 30.760826,3.984 L30.760826,4.08 C30.711788,4.6 30.2786191,4.96 29.7392013,4.96 Z" transform="translate(26.000000, 15.000000) translate(15.181717, 2.762653)"/>
        <path d="M35.3645585,1.416 C34.9068706,1.416 34.4491828,1.624 34.1386089,2.08 L34.1386089,1.48 L32.7900644,1.48 L32.7900644,5.904 L34.1386089,5.904 L34.1386089,4.096 C34.1386089,3.232 34.5554318,2.648 35.2337905,2.648 C35.3972505,2.648 35.5688834,2.672 35.7323433,2.712 L35.7813813,1.448 C35.6669594,1.432 35.5198454,1.416 35.3645585,1.416 Z" transform="translate(26.000000, 15.000000) translate(15.181717, 2.762653)"/>
        <path d="M39.4697382,1.968 C39.0937803,1.568 38.5707085,1.384 37.9985987,1.384 C36.7726491,1.384 35.8327544,2.312 35.8327544,3.672 C35.8327544,5.04 36.7889951,6 37.9904257,6 C38.5707085,6 39.0937803,5.808 39.4697382,5.408 L39.4697382,5.904 L40.8182827,5.904 L40.8182827,0 L39.4697382,0 L39.4697382,1.968 Z M38.3009996,4.864 C37.6308138,4.864 37.181299,4.392 37.181299,3.68 C37.181299,2.992 37.6389868,2.52 38.3009996,2.52 C38.9875313,2.52 39.4697382,2.968 39.4697382,3.688 C39.4697382,4.416 38.9793583,4.864 38.3009996,4.864 Z" transform="translate(26.000000, 15.000000) translate(15.181717, 2.762653)"/>
      </g>
      <g transform="translate(26.000000, 15.000000)">
        <mask id="e" fill="#fff">
          <use xlink:href="#d"/>
        </mask>
        <path fill="#0088E6" mask="url(#e)" d="M9.983 2.229 6.13.667 2.277 2.229 6.13 6"/>
        <path fill="#0076C7" mask="url(#e)" d="M9.983 9.771 11.578 6 9.983 2.229 6.13 6"/>
        <path fill="#005691" mask="url(#e)" d="M2.277 9.771 6.13 11.333 9.983 9.771 6.13 6"/>
        <path fill="#0097FF" mask="url(#e)" d="M2.277 2.229.681 6 2.277 9.771 6.13 6"/>
      </g>
    </g>
  </g>
</svg>